<?xml version="1.0" encoding="UTF-8" standalone="no"?>
<!-- Created with Inkscape (http://www.inkscape.org/) -->

<svg
   xmlns:dc="http://purl.org/dc/elements/1.1/"
   xmlns:cc="http://creativecommons.org/ns#"
   xmlns:rdf="http://www.w3.org/1999/02/22-rdf-syntax-ns#"
   xmlns:svg="http://www.w3.org/2000/svg"
   xmlns="http://www.w3.org/2000/svg"
   xmlns:sodipodi="http://sodipodi.sourceforge.net/DTD/sodipodi-0.dtd"
   xmlns:inkscape="http://www.inkscape.org/namespaces/inkscape"
   width="283.79401mm"
   height="299.789mm"
   viewBox="0 0 1005.5693 1062.2445"
   id="svg4637"
   version="1.1"
   inkscape:version="0.91 r13725"
   sodipodi:docname="departements.svg">
  <defs
     id="defs4639" />
  <sodipodi:namedview
     id="base"
     pagecolor="#ffffff"
     bordercolor="#666666"
     borderopacity="1.0"
     inkscape:pageopacity="0.0"
     inkscape:pageshadow="2"
     inkscape:zoom="0.49497475"
     inkscape:cx="171.23637"
     inkscape:cy="540.43163"
     inkscape:document-units="px"
     inkscape:current-layer="layer9"
     showgrid="false"
     inkscape:window-width="1366"
     inkscape:window-height="716"
     inkscape:window-x="-8"
     inkscape:window-y="-8"
     inkscape:window-maximized="1" />
  <metadata
     id="metadata4642">
    <rdf:RDF>
      <cc:Work
         rdf:about="">
        <dc:format>image/svg+xml</dc:format>
        <dc:type
           rdf:resource="http://purl.org/dc/dcmitype/StillImage" />
        <dc:title></dc:title>
      </cc:Work>
    </rdf:RDF>
  </metadata>
  <g
     inkscape:label="Calque 1"
     inkscape:groupmode="layer"
     id="layer1"
     transform="translate(0,9.8822835)" />
  <g
     inkscape:groupmode="layer"
     id="layer9"
     inkscape:label="Dept1"
     transform="translate(0,9.8822835)">
    <path
       style="fill:#0066ff;fill-opacity:1;fill-rule:evenodd;stroke:none;stroke-width:1px;stroke-linecap:butt;stroke-linejoin:miter;stroke-opacity:1"
       d="m 190.91883,583.65142 36.36549,-5.05076 19.1929,11.11168 -12.12183,19.19289 67.68022,20.20305 31.31473,53.53809 -10.10153,15.15229 28.28427,21.2132 16.16244,-16.16244 5.05077,11.11168 -1.01016,19.1929 36.3655,26.26396 -22.22336,26.26397 -7.07107,18.18274 -12.12183,-5.05076 1.01015,-18.18274 -39.39595,9.09137 -36.36549,73.74114 -231.32493,-80.81221 z"
       id="path5222"
       inkscape:connector-curvature="0" />
    <path
       style="fill:#0066ff;fill-opacity:1;fill-rule:evenodd;stroke:none;stroke-width:1px;stroke-linecap:butt;stroke-linejoin:miter;stroke-opacity:1"
       d="m 57.57869,784.67178 -55.55839,15.15228 1.01015,26.26397 20.20306,6.06092 9.09137,17.17259 9.09137,-13.13198 22.22336,26.26396 -38.3858,42.42641 22.22336,11.11168 23.23351,-16.16244 5.05076,45.45686 74.75129,45.45687 7.07106,44.4467 58.58885,16.1625 27.27412,-53.53814 75.76144,-56.56854 6.06092,-54.54824 -28.28427,-22.22335 -8.08122,3.03046 z"
       id="path5224"
       inkscape:connector-curvature="0" />
    <path
       style="fill:#0066ff;fill-opacity:1;fill-rule:evenodd;stroke:none;stroke-width:1px;stroke-linecap:butt;stroke-linejoin:miter;stroke-opacity:1"
       d="m 507.08813,-10.890834 134.28571,17.142853 -45.05076,199.509791 23.8673,5.2092 -18.81654,58.13815 -50,12.85714 -80.71428,-69.28571 -6.42857,-46.42857 40,-4.28572 z"
       id="path5192"
       inkscape:connector-curvature="0"
       sodipodi:nodetypes="cccccccccc" />
    <path
       style="fill:#008000;fill-opacity:1;fill-rule:evenodd;stroke:none;stroke-width:1px;stroke-linecap:butt;stroke-linejoin:miter;stroke-opacity:1"
       d="m 851.28375,274.93474 -39.0765,49.16317 17.64793,93.69397 27.0562,20.59174 1.09681,35.71429 29.84155,-2.35208 40.33177,35.12256 33.78063,-1.93365 -10.67839,-32.85714 56.30605,-29.06164 -10.59176,-89.50979 -22.85714,-40 -81.42858,-31.42857 z"
       id="path5198"
       inkscape:connector-curvature="0"
       sodipodi:nodetypes="cccccccccccccc" />
    <path
       style="fill:#0066ff;fill-opacity:1;fill-rule:evenodd;stroke:none;stroke-width:1px;stroke-linecap:butt;stroke-linejoin:miter;stroke-opacity:1"
       d="m 726.75293,497.46012 130,-18.57143 30,-2.85714 41.42858,35.71428 34.28571,-2.85714 -14.28571,28.57143 -8.57143,52.85714 -28.57143,-10 -80,84.28572 -64.28572,-5.71429 -47.14285,-48.57143 -20,-52.85714 z"
       id="path5200"
       inkscape:connector-curvature="0" />
    <path
       sodipodi:nodetypes="cccccccccccccc"
       inkscape:connector-curvature="0"
       id="path5204"
       d="m 646.56741,8.186468 26.01143,-5.050763 34.09264,39.395948 -5.55583,33.335035 60.60914,11.111678 8.08122,96.974634 30.30457,72.22591 -90.55221,24.57542 -4.38725,24.22879 -63.00454,-0.30329 -41.79135,-30.60788 23.46375,-65.37021 -23.23351,-6.06092 z"
       style="fill:#0066ff;fill-opacity:1;fill-rule:evenodd;stroke:none;stroke-width:1px;stroke-linecap:butt;stroke-linejoin:miter;stroke-opacity:1" />
    <path
       inkscape:connector-curvature="0"
       id="path5206"
       d="m 701.04587,353.33664 11.11167,-69.70052 82.32744,-23.23351 41.92133,24.24366 -28.28427,38.38579 18.18274,96.97465 28.28427,20.20305 0,34.85027 -131.8249,18.68782 -77.27666,-91.4188 z"
       style="fill:#008000;fill-opacity:1;fill-rule:evenodd;stroke:none;stroke-width:1px;stroke-linecap:butt;stroke-linejoin:miter;stroke-opacity:1"
       sodipodi:nodetypes="ccccccccccc" />
    <path
       inkscape:connector-curvature="0"
       id="path5210"
       d="m 726.75293,497.46012 130,-18.57143 30,-2.85714 41.42858,35.71428 34.28571,-2.85714 -14.28571,28.57143 -8.57143,52.85714 -28.57143,-10 -80,84.28572 -64.28572,-5.71429 -47.14285,-48.57143 -20,-52.85714 z"
       style="fill:#008000;fill-opacity:1;fill-rule:evenodd;stroke:none;stroke-width:1px;stroke-linecap:butt;stroke-linejoin:miter;stroke-opacity:1" />
    <path
       style="fill:#0066ff;fill-opacity:1;fill-rule:evenodd;stroke:none;stroke-width:1px;stroke-linecap:butt;stroke-linejoin:miter;stroke-opacity:1"
       d="m 460.66738,155.54134 7.14285,60 80,68.57143 -38.57142,44.28571 -45.71429,-11.42857 -9.78463,112.32488 32.64177,47.67512 -18.57143,22.85714 -50,-30 1.42858,-42.85714 -47.14286,-25.71428 8.57143,-31.42858 -51.42857,-104.28571 54.28571,-60 -12.85714,-58.57143 58.57143,-11.42857 c 5.17425,5.53225 31.42857,20 31.42857,20 z"
       id="path5212"
       inkscape:connector-curvature="0"
       sodipodi:nodetypes="ccccccccccccccccc" />
    <path
       style="fill:#008000;fill-opacity:1;fill-rule:evenodd;stroke:none;stroke-width:1px;stroke-linecap:butt;stroke-linejoin:miter;stroke-opacity:1"
       d="m 512.14734,331.11328 41.41625,-47.47717 42.42641,-10.10152 44.44671,33.33503 64.64976,1.01016 -7.07106,45.45686 -55.55839,46.46702 -107.07617,72.73098 -26.26397,15.15229 -18.18275,-10.10153 -29.29442,-48.48732 3.03045,-51.51778 3.03047,-57.57869 z"
       id="path5214"
       inkscape:connector-curvature="0"
       sodipodi:nodetypes="cccccccccccccc" />
    <path
       style="fill:#008000;fill-opacity:1;fill-rule:evenodd;stroke:none;stroke-width:1px;stroke-linecap:butt;stroke-linejoin:miter;stroke-opacity:1"
       d="m 641.44687,404.85441 81.82235,93.9442 -28.28427,60.60915 23.23351,56.56854 -15.15229,36.36549 -84.85282,52.52794 -11.11167,-22.22336 -104.04572,-37.37564 4.04061,-64.64977 -53.53808,-10.10152 39.39595,-56.56855 -19.1929,-13.13198 14.14214,-19.1929 21.2132,11.11168 z"
       id="path5216"
       inkscape:connector-curvature="0"
       sodipodi:nodetypes="ccccccccccccccc" />
    <path
       style="fill:#008000;fill-opacity:1;fill-rule:evenodd;stroke:none;stroke-width:1px;stroke-linecap:butt;stroke-linejoin:miter;stroke-opacity:1"
       d="m 502.04581,612.94584 -2.0203,35.35534 106.06601,37.37565 9.09138,21.2132 -16.16244,2.02031 -3.03046,47.47717 -22.22336,-3.03046 -7.07106,-11.11168 -10.10153,20.20305 7.07107,8.08122 -64.64977,44.44671 -13.13198,-16.16244 -95.96449,-10.10152 23.23351,-30.30458 -36.36549,-28.28427 0,-15.15229 95.96449,-83.84266 -8.08122,-13.13198 z"
       id="path5218"
       inkscape:connector-curvature="0"
       sodipodi:nodetypes="ccccccccccccccccccc" />
    <path
       style="fill:#0066ff;fill-opacity:1;fill-rule:evenodd;stroke:none;stroke-width:1px;stroke-linecap:butt;stroke-linejoin:miter;stroke-opacity:1"
       d="m 371.73613,406.87472 46.46702,25.25382 -3.03046,42.42641 72.73099,39.39594 -39.39595,59.599 54.54823,10.10153 -3.03046,25.25381 -43.43655,5.05076 12.12183,15.15229 -94.95435,82.83251 -8.08121,-13.13198 -15.15229,17.17259 -22.22336,-19.19289 10.10153,-12.12184 -38.3858,-59.599 -60.60915,-17.17259 12.12183,-17.17259 -24.24366,-15.15229 -35.35534,5.05076 16.16244,-34.34518 117.1777,-228.29448 20.20305,-1.01015 19.1929,94.95434 z"
       id="path5220"
       inkscape:connector-curvature="0"
       sodipodi:nodetypes="cccccccccccccccccccccccc" />
  </g>
</svg>
