<?xml version="1.0" encoding="UTF-8" standalone="no"?>
<!-- Created with Inkscape (http://www.inkscape.org/) -->

<svg
   xmlns:dc="http://purl.org/dc/elements/1.1/"
   xmlns:cc="http://creativecommons.org/ns#"
   xmlns:rdf="http://www.w3.org/1999/02/22-rdf-syntax-ns#"
   xmlns:svg="http://www.w3.org/2000/svg"
   xmlns="http://www.w3.org/2000/svg"
   xmlns:xlink="http://www.w3.org/1999/xlink"
   xmlns:sodipodi="http://sodipodi.sourceforge.net/DTD/sodipodi-0.dtd"
   xmlns:inkscape="http://www.inkscape.org/namespaces/inkscape"
   width="400mm"
   height="400mm"
   viewBox="0 0 1417.3228 1417.3228"
   id="svg2"
   version="1.1"
   inkscape:version="0.91 r13725"
   sodipodi:docname="logo-ligue.svg">
  <defs
     id="defs4">
    <linearGradient
       inkscape:collect="always"
       id="linearGradient4457">
      <stop
         style="stop-color:#0066ff;stop-opacity:1;"
         offset="0"
         id="stop4459" />
      <stop
         style="stop-color:#0066ff;stop-opacity:0;"
         offset="1"
         id="stop4461" />
    </linearGradient>
    <radialGradient
       inkscape:collect="always"
       xlink:href="#linearGradient4457"
       id="radialGradient4463"
       cx="349.23737"
       cy="508.9216"
       fx="349.23737"
       fy="508.9216"
       r="116.22837"
       gradientTransform="matrix(0.7049106,0.39724734,-3.5028288,6.2157272,2234.5079,-2530.1693)"
       gradientUnits="userSpaceOnUse" />
    <linearGradient
       inkscape:collect="always"
       xlink:href="#linearGradient4457"
       id="linearGradient4481"
       gradientUnits="userSpaceOnUse"
       x1="75.348885"
       y1="158.27078"
       x2="1008.5073"
       y2="778.27069"
       gradientTransform="matrix(0.89631772,1.7879079,-1.7879079,0.89631772,941.16998,-419.32981)" />
    <linearGradient
       inkscape:collect="always"
       xlink:href="#linearGradient4457"
       id="linearGradient4483"
       gradientUnits="userSpaceOnUse"
       x1="75.348885"
       y1="158.27078"
       x2="1008.5073"
       y2="778.27069"
       gradientTransform="matrix(0.89631772,1.7879079,-1.7879079,0.89631772,941.16998,-419.32981)" />
    <linearGradient
       inkscape:collect="always"
       xlink:href="#linearGradient4457"
       id="linearGradient4485"
       gradientUnits="userSpaceOnUse"
       x1="75.348885"
       y1="158.27078"
       x2="1008.5073"
       y2="778.27069"
       gradientTransform="matrix(0.89631772,1.7879079,-1.7879079,0.89631772,941.16998,-419.32981)" />
    <linearGradient
       inkscape:collect="always"
       xlink:href="#linearGradient4457"
       id="linearGradient4487"
       gradientUnits="userSpaceOnUse"
       x1="75.348885"
       y1="158.27078"
       x2="1008.5073"
       y2="778.27069"
       gradientTransform="matrix(0.89631772,1.7879079,-1.7879079,0.89631772,941.16998,-419.32981)" />
  </defs>
  <sodipodi:namedview
     id="base"
     pagecolor="#ffffff"
     bordercolor="#666666"
     borderopacity="1.0"
     inkscape:pageopacity="0.0"
     inkscape:pageshadow="2"
     inkscape:zoom="0.35"
     inkscape:cx="490.85726"
     inkscape:cy="712.27547"
     inkscape:document-units="px"
     inkscape:current-layer="layer5"
     showgrid="false"
     showguides="true"
     inkscape:guide-bbox="true"
     inkscape:window-width="1366"
     inkscape:window-height="716"
     inkscape:window-x="-8"
     inkscape:window-y="-8"
     inkscape:window-maximized="1" />
  <metadata
     id="metadata7">
    <rdf:RDF>
      <cc:Work
         rdf:about="">
        <dc:format>image/svg+xml</dc:format>
        <dc:type
           rdf:resource="http://purl.org/dc/dcmitype/StillImage" />
        <dc:title></dc:title>
      </cc:Work>
    </rdf:RDF>
  </metadata>
  <g
     inkscape:groupmode="layer"
     id="layer2"
     inkscape:label="Ballon"
     style="display:inline"
     sodipodi:insensitive="true">
    <path
       style="fill:url(#linearGradient4481);fill-opacity:1;fill-rule:evenodd;stroke:none;stroke-width:1px;stroke-linecap:butt;stroke-linejoin:miter;stroke-opacity:1"
       d="m 68.969066,406.24294 c 0,0 67.519024,-264.67608 368.884064,-326.712163 -8.49531,3.076072 -102.89465,111.247263 -102.89465,111.247263 l 74.33646,112.41597 222.8571,-2.86006 65.39759,-124.57553 -85.46815,-100.698026 c 0,0 309.49588,32.072016 405.07352,303.995626 0.1466,5.7124 -49.43677,-144.49382 -290.67694,-189.74945 L 658.59072,328.23643 390.10767,335.12524 303.90666,205.8652 c 0,0 -110.65904,31.42015 -234.937594,200.37774 z"
       id="path4150"
       inkscape:connector-curvature="0"
       sodipodi:nodetypes="ccccccccccccc" />
    <path
       style="display:inline;fill:url(#linearGradient4483);fill-opacity:1;fill-rule:evenodd;stroke:none;stroke-width:1px;stroke-linecap:butt;stroke-linejoin:miter;stroke-opacity:1"
       d="m 93.299068,798.25564 c 0,0 81.003512,260.86516 385.153332,307.36476 -8.64188,-2.6363 -108.46431,-105.8241 -108.46431,-105.8241 l 68.47363,-116.08023 222.71052,-8.57245 71.7001,121.05786 -80.1916,104.94852 c 0,0 307.44385,-47.9016 388.95076,-324.36886 -0.1466,-5.7124 -41.9617,146.83892 -280.56359,204.40646 l -74.92274,-135.26555 -268.483,6.88882 -79.45873,133.51055 c 0,0 -112.12475,-25.70388 -244.904372,-188.06578 z"
       id="path4150-5"
       inkscape:connector-curvature="0"
       sodipodi:nodetypes="ccccccccccccc" />
    <path
       style="fill:url(#linearGradient4485);fill-opacity:1;fill-rule:evenodd;stroke:none;stroke-width:1px;stroke-linecap:butt;stroke-linejoin:miter;stroke-opacity:1"
       d="m 64.614754,711.72455 c 0,0 -57.1992619,-112.8558 -6.082657,-237.06487 -0.07329,-2.85613 59.176003,78.50802 59.176003,78.50802 l -0.65764,85.75937 z"
       id="path4177"
       inkscape:connector-curvature="0"
       sodipodi:nodetypes="ccccc" />
    <path
       style="display:inline;fill:url(#linearGradient4487);fill-opacity:1;fill-rule:evenodd;stroke:none;stroke-width:1px;stroke-linecap:butt;stroke-linejoin:miter;stroke-opacity:1"
       d="m 1049.4372,696.03182 c 0,0 46.4727,-117.67953 -15.9567,-236.60542 -0.1922,-2.8506 -51.63029,83.66372 -51.63029,83.66372 l 8.61814,85.32774 z"
       id="path4177-7"
       inkscape:connector-curvature="0"
       sodipodi:nodetypes="ccccc" />
  </g>
  <g
     inkscape:groupmode="layer"
     id="layer5"
     inkscape:label="Carte"
     style="display:inline;opacity:0.9">
    <path
       style="fill:#0066ff;fill-opacity:1;fill-rule:evenodd;stroke:none;stroke-width:1px;stroke-linecap:butt;stroke-linejoin:miter;stroke-opacity:1"
       d="m 220.37858,692.95777 14.81137,-10.84496 11.08344,0.34133 -0.78602,11.32293 34.58389,-7.15183 26.47815,16.14442 -0.85459,9.0652 17.4805,2.63284 3.28324,-10.94681 4.8578,3.69415 4.10555,8.68857 22.23546,2.94039 -3.5565,16.83062 1.19793,9.6808 -6.5337,0.6504 -3.86607,-8.24388 -15.18748,13.34217 1.47373,41.08381 -120.99269,19.26734 z"
       id="path5222"
       inkscape:connector-curvature="0" />
    <path
       style="fill:#0066ff;fill-opacity:1;fill-rule:evenodd;stroke:none;stroke-width:1px;stroke-linecap:butt;stroke-linejoin:miter;stroke-opacity:1"
       d="m 210.76608,815.20595 -20.86559,19.84209 6.67134,11.32243 10.33071,-2.1216 8.07347,5.40433 0.88887,-7.93634 16.00981,6.29321 -6.83974,27.77742 12.41751,-0.37713 6.39606,-12.62321 13.00034,18.81356 43.68388,2.28899 13.65023,17.8899 29.62374,-6.7752 -0.68619,-30.03465 19.94041,-42.86408 -10.26415,-25.45012 -17.71999,-3.07752 -2.83905,3.24996 z"
       id="path5224"
       inkscape:connector-curvature="0" />
    <path
       style="fill:#0066ff;fill-opacity:1;fill-rule:evenodd;stroke:none;stroke-width:1px;stroke-linecap:butt;stroke-linejoin:miter;stroke-opacity:1"
       d="m 223.75143,347.12849 63.17941,-24.2898 27.4675,98.50872 11.74185,-3.36526 5.49997,30.05457 -18.96281,17.51395 -51.95824,-11.3652 -13.83725,-18.91468 16.59272,-11.36985 z"
       id="path5192"
       inkscape:connector-curvature="0"
       sodipodi:nodetypes="cccccccccc" />
    <path
       style="fill:#0066ff;fill-opacity:1;fill-rule:evenodd;stroke:none;stroke-width:1px;stroke-linecap:butt;stroke-linejoin:miter;stroke-opacity:1"
       d="m 453.03651,389.35269 -5.54665,30.90683 29.9819,37.06195 16.79255,2.65041 8.94997,15.46209 12.5792,-8.11025 26.08168,5.89979 14.41246,-8.85993 -12.49059,-11.93273 17.89708,-26.14252 -25.88364,-36.89286 -19.54535,-12.18982 -43.29752,5.46959 z"
       id="path5198"
       inkscape:connector-curvature="0"
       sodipodi:nodetypes="cccccccccccccc" />
    <path
       style="fill:#0066ff;fill-opacity:1;fill-rule:evenodd;stroke:none;stroke-width:1px;stroke-linecap:butt;stroke-linejoin:miter;stroke-opacity:1"
       d="m 447.25757,522.97928 56.39706,-41.85301 12.52921,-8.37016 26.7048,5.90025 14.41587,-9.38621 0.48486,15.96455 8.75804,25.30086 -14.94849,2.37151 -15.23513,56.07059 -29.65457,12.7253 -34.41136,-6.63405 -23.4786,-20.67001 z"
       id="path5200"
       inkscape:connector-curvature="0"
       sodipodi:nodetypes="ccccccccccccc" />
    <path
       sodipodi:nodetypes="cccccccccccccc"
       inkscape:connector-curvature="0"
       id="path5204"
       d="m 291.67577,319.74469 10.25331,-8.39022 24.34822,9.26019 5.45728,15.99191 29.31568,-9.47762 26.54823,40.77423 30.46396,24.61066 -34.03652,32.28667 3.8128,11.70611 -27.80773,14.80358 -25.65387,-3.5663 -5.16875,-34.34002 -11.66477,2.84006 z"
       style="fill:#0066ff;fill-opacity:1;fill-rule:evenodd;stroke:none;stroke-width:1px;stroke-linecap:butt;stroke-linejoin:miter;stroke-opacity:1" />
    <path
       inkscape:connector-curvature="0"
       id="path5206"
       d="m 401.48636,461.48509 -11.63301,-33.31788 30.73395,-29.74601 24.20227,0.73383 -3.3508,23.6038 30.99512,38.37938 17.24102,2.18815 8.2623,15.34177 -53.60139,39.47975 -55.69224,-21.92361 z"
       style="fill:#0066ff;fill-opacity:1;fill-rule:evenodd;stroke:none;stroke-width:1px;stroke-linecap:butt;stroke-linejoin:miter;stroke-opacity:1"
       sodipodi:nodetypes="ccccccccccc" />
    <path
       style="fill:#0066ff;fill-opacity:1;fill-rule:evenodd;stroke:none;stroke-width:1px;stroke-linecap:butt;stroke-linejoin:miter;stroke-opacity:1"
       d="m 240.48809,433.4006 17.36921,24.71974 51.47445,11.22011 -6.48064,28.63993 -22.83381,5.80685 22.32257,51.76734 25.67234,13.24882 -2.75654,14.46507 -29.12336,-1.3526 -9.53167,-19.20524 -26.84954,-0.14331 -3.67777,-15.86759 -47.36389,-33.71593 9.67285,-39.28321 -19.54606,-22.73612 23.0748,-18.91718 c 3.58939,1.2087 18.57706,1.35332 18.57706,1.35332 z"
       id="path5212"
       inkscape:connector-curvature="0"
       sodipodi:nodetypes="ccccccccccccccccc" />
    <path
       style="fill:#0066ff;fill-opacity:1;fill-rule:evenodd;stroke:none;stroke-width:1px;stroke-linecap:butt;stroke-linejoin:miter;stroke-opacity:1"
       d="m 309.06083,498.48594 6.97637,-30.71933 16.28207,-14.50533 27.46937,4.13732 28.69957,-14.88245 7.66408,21.6874 -13.4415,33.62745 -29.89398,57.40319 -7.96961,12.89698 -10.39927,-0.13613 -24.39133,-14.39995 -10.87976,-23.39759 -12.31667,-26.06572 z"
       id="path5214"
       inkscape:connector-curvature="0"
       sodipodi:nodetypes="cccccccccccccc" />
    <path
       style="fill:#0066ff;fill-opacity:1;fill-rule:evenodd;stroke:none;stroke-width:1px;stroke-linecap:butt;stroke-linejoin:miter;stroke-opacity:1"
       d="m 384.17782,501.7225 58.29206,21.95765 1.91791,33.38696 23.6391,19.39438 1.95119,19.6011 -24.90056,43.2407 -10.16028,-7.1488 -54.66396,8.21364 -13.5484,-29.41804 -25.96337,8.24591 3.93161,-34.24256 -11.56241,-1.23071 1.67539,-11.8019 11.97282,-0.13764 z"
       id="path5216"
       inkscape:connector-curvature="0"
       sodipodi:nodetypes="ccccccccccccccc" />
    <path
       style="fill:#0066ff;fill-opacity:1;fill-rule:evenodd;stroke:none;stroke-width:1px;stroke-linecap:butt;stroke-linejoin:miter;stroke-opacity:1"
       d="m 372.14501,639.23471 10.34981,6.04308 51.26761,-6.54975 17.60286,11.46879 -18.77891,4.00689 9.92181,18.04741 -10.50162,3.93464 -5.74717,-3.21518 0.34284,11.28865 5.02872,1.8811 -17.92268,34.89346 -9.61274,-4.0017 -44.64031,18.30435 3.04325,-18.84886 -22.71443,-3.82977 -3.5923,-6.67033 22.36805,-56.08898 -6.67084,-6.7222 z"
       id="path5218"
       inkscape:connector-curvature="0"
       sodipodi:nodetypes="ccccccccccccccccccc" />
    <path
       style="fill:#0066ff;fill-opacity:1;fill-rule:evenodd;stroke:none;stroke-width:1px;stroke-linecap:butt;stroke-linejoin:miter;stroke-opacity:1"
       d="m 258.78201,568.69767 26.44285,0.10084 8.72438,19.39539 46.35758,0.0998 -6.07029,38.43376 29.2652,-9.91396 8.93881,16.83569 -30.78133,8.94993 10.35714,7.36793 -20.01999,52.54766 -6.67083,-3.86506 -2.59906,11.15201 -14.33341,-3.18038 1.57305,-7.73114 -31.02789,-17.13615 -30.7526,6.80949 1.26499,-10.43354 -14.26483,-0.92266 -14.36668,10.60548 -1.02752,-18.95121 -2.54008,-128.28013 8.65429,-5.23443 30.96083,37.25051 z"
       id="path5220"
       inkscape:connector-curvature="0"
       sodipodi:nodetypes="cccccccccccccccccccccccc" />
  </g>
  <g
     inkscape:groupmode="layer"
     id="layer3"
     inkscape:label="Texte slogan"
     sodipodi:insensitive="true"
     style="display:inline">
    <text
       xml:space="preserve"
       style="font-style:normal;font-variant:normal;font-weight:bold;font-stretch:normal;font-size:59.99999237px;line-height:125%;font-family:Verdana;-inkscape-font-specification:'Verdana Bold';text-align:start;letter-spacing:0px;word-spacing:0px;writing-mode:lr-tb;text-anchor:start;display:inline;fill:#000000;fill-opacity:1;stroke:none;stroke-width:1px;stroke-linecap:butt;stroke-linejoin:miter;stroke-opacity:1"
       x="225.13165"
       y="729.94885"
       id="text4194"
       sodipodi:linespacing="125%"
       transform="matrix(0.99990242,0.01396984,-0.01396984,0.99990242,0,0)"><tspan
         sodipodi:role="line"
         id="tspan4196"
         x="225.13165"
         y="729.94885"
         style="font-style:normal;font-variant:normal;font-weight:bold;font-stretch:normal;font-family:'Segoe Print';-inkscape-font-specification:'Segoe Print Bold'" /></text>
    <text
       xml:space="preserve"
       style="font-style:normal;font-variant:normal;font-weight:normal;font-stretch:normal;font-size:24.99999619px;line-height:125%;font-family:'Segoe Print';-inkscape-font-specification:'Segoe Print';text-align:start;letter-spacing:0px;word-spacing:0px;writing-mode:lr-tb;text-anchor:start;fill:#000000;fill-opacity:1;stroke:none;stroke-width:1px;stroke-linecap:butt;stroke-linejoin:miter;stroke-opacity:1"
       x="1029.9999"
       y="1044.4656"
       id="text4369"
       sodipodi:linespacing="125%"><tspan
         sodipodi:role="line"
         id="tspan4371"
         x="1029.9999"
         y="1044.4656"
         style="font-style:normal;font-variant:normal;font-weight:normal;font-stretch:normal;font-size:24.99999619px;font-family:'Segoe Print';-inkscape-font-specification:'Segoe Print'">réussir ensemble...</tspan></text>
    <text
       xml:space="preserve"
       style="font-style:normal;font-variant:normal;font-weight:normal;font-stretch:normal;font-size:24.99999619px;line-height:125%;font-family:'Segoe Print';-inkscape-font-specification:'Segoe Print';text-align:start;letter-spacing:0px;word-spacing:0px;writing-mode:lr-tb;text-anchor:start;fill:#000000;fill-opacity:1;stroke:none;stroke-width:1px;stroke-linecap:butt;stroke-linejoin:miter;stroke-opacity:1"
       x="750.32031"
       y="1160.1901"
       id="text4373"
       sodipodi:linespacing="125%"><tspan
         sodipodi:role="line"
         id="tspan4375"
         x="750.32031"
         y="1160.1901"
         style="font-style:normal;font-variant:normal;font-weight:normal;font-stretch:normal;font-size:24.99999619px;font-family:'Segoe Print';-inkscape-font-specification:'Segoe Print'">Divers slogans :</tspan></text>
    <text
       xml:space="preserve"
       style="font-style:normal;font-variant:normal;font-weight:normal;font-stretch:normal;font-size:24.99999619px;line-height:125%;font-family:'Segoe Print';-inkscape-font-specification:'Segoe Print';text-align:start;letter-spacing:0px;word-spacing:0px;writing-mode:lr-tb;text-anchor:start;fill:#000000;fill-opacity:1;stroke:none;stroke-width:1px;stroke-linecap:butt;stroke-linejoin:miter;stroke-opacity:1"
       x="1025.7141"
       y="1109.3228"
       id="text4377"
       sodipodi:linespacing="125%"><tspan
         sodipodi:role="line"
         id="tspan4379"
         x="1025.7141"
         y="1109.3228">accomplissons le meilleur...</tspan></text>
    <text
       xml:space="preserve"
       style="font-style:normal;font-variant:normal;font-weight:normal;font-stretch:normal;font-size:24.99999619px;line-height:125%;font-family:'Segoe Print';-inkscape-font-specification:'Segoe Print';text-align:start;letter-spacing:0px;word-spacing:0px;writing-mode:lr-tb;text-anchor:start;fill:#000000;fill-opacity:1;stroke:none;stroke-width:1px;stroke-linecap:butt;stroke-linejoin:miter;stroke-opacity:1"
       x="1022.6379"
       y="1170.5763"
       id="text4369-4"
       sodipodi:linespacing="125%"><tspan
         sodipodi:role="line"
         id="tspan4371-6"
         x="1022.6379"
         y="1170.5763"
         style="font-style:normal;font-variant:normal;font-weight:normal;font-stretch:normal;font-size:24.99999619px;font-family:'Segoe Print';-inkscape-font-specification:'Segoe Print'">le renouveau ensemble...</tspan></text>
    <text
       xml:space="preserve"
       style="font-style:normal;font-variant:normal;font-weight:normal;font-stretch:normal;font-size:24.99999619px;line-height:125%;font-family:'Segoe Print';-inkscape-font-specification:'Segoe Print';text-align:start;letter-spacing:0px;word-spacing:0px;writing-mode:lr-tb;text-anchor:start;fill:#000000;fill-opacity:1;stroke:none;stroke-width:1px;stroke-linecap:butt;stroke-linejoin:miter;stroke-opacity:1"
       x="1024.0665"
       y="1228.2906"
       id="text4369-3"
       sodipodi:linespacing="125%"><tspan
         sodipodi:role="line"
         id="tspan4371-8"
         x="1024.0665"
         y="1228.2906"
         style="font-style:normal;font-variant:normal;font-weight:normal;font-stretch:normal;font-size:24.99999619px;font-family:'Segoe Print';-inkscape-font-specification:'Segoe Print'">la réussite ensemble...</tspan></text>
    <text
       xml:space="preserve"
       style="font-style:normal;font-variant:normal;font-weight:normal;font-stretch:normal;font-size:24.99999619px;line-height:125%;font-family:'Segoe Print';-inkscape-font-specification:'Segoe Print';text-align:start;letter-spacing:0px;word-spacing:0px;writing-mode:lr-tb;text-anchor:start;fill:#000000;fill-opacity:1;stroke:none;stroke-width:1px;stroke-linecap:butt;stroke-linejoin:miter;stroke-opacity:1"
       x="1026.2498"
       y="1282.2906"
       id="text4369-3-0"
       sodipodi:linespacing="125%"><tspan
         sodipodi:role="line"
         id="tspan4371-8-9"
         x="1026.2498"
         y="1282.2906"
         style="font-style:normal;font-variant:normal;font-weight:normal;font-stretch:normal;font-size:24.99999619px;font-family:'Segoe Print';-inkscape-font-specification:'Segoe Print'">l'espoir ensemble...</tspan></text>
    <path
       style="fill:#000000;fill-rule:evenodd;stroke:none;stroke-width:1px;stroke-linecap:butt;stroke-linejoin:miter;stroke-opacity:1"
       d="m 1040.457,984.97747 c 0,0 -84.8528,55.55843 -72.73098,166.67523 -6.0609,-10.1016 -22.22334,2.0203 -22.22334,2.0203 l 23.23349,5.0507 c 0,0 -15.15228,55.5583 29.29442,179.8071 -2.0203,-2.0203 -89.90356,-255.5685 42.42641,-353.55333 z"
       id="path4619"
       inkscape:connector-curvature="0"
       sodipodi:nodetypes="cccccc" />
  </g>
  <g
     inkscape:groupmode="layer"
     id="layer6"
     inkscape:label="Flèches"
     sodipodi:insensitive="true"
     style="display:inline">
    <path
       style="fill:url(#radialGradient4463);fill-opacity:1;fill-rule:evenodd;stroke:none;stroke-width:1px;stroke-linecap:butt;stroke-linejoin:miter;stroke-opacity:1"
       d="m 982.70978,194.73937 c 0,0 20.00002,414.28568 -462.85706,637.14278 5.71428,-5.71428 325.71426,-182.85712 85.71428,105.71428 5.71428,-8.57142 411.4285,-374.28568 377.14278,-742.85706 z"
       id="path4455"
       inkscape:connector-curvature="0" />
  </g>
  <g
     inkscape:groupmode="layer"
     id="layer7"
     inkscape:label="Flèches 1"
     sodipodi:insensitive="true"
     style="display:inline">
    <path
       style="fill:#ffffff;fill-rule:evenodd;stroke:none;stroke-width:1px;stroke-linecap:butt;stroke-linejoin:miter;stroke-opacity:1"
       d="m 115.15738,326.35809 c 0,0 105.05584,-175.76653 260.61933,-214.15231 -10.10153,2.0203 -121.2183,68.69036 -260.61933,214.15231 z"
       id="path4538"
       inkscape:connector-curvature="0" />
    <path
       style="fill:#ffffff;fill-rule:evenodd;stroke:none;stroke-width:1px;stroke-linecap:butt;stroke-linejoin:miter;stroke-opacity:1"
       d="m 936.35591,256.93283 c 0,0 -136.83542,-152.3373 -296.87405,-160.154345 10.30146,0.0441 132.14782,44.149715 296.87405,160.154345 z"
       id="path4538-0"
       inkscape:connector-curvature="0" />
    <path
       style="fill:#ffffff;fill-rule:evenodd;stroke:none;stroke-width:1px;stroke-linecap:butt;stroke-linejoin:miter;stroke-opacity:1"
       d="m 152.43588,899.73891 c 0,0 124.52963,162.55139 283.4702,182.83399 -10.26664,-0.8478 -128.29935,-54.3279 -283.4702,-182.83399 z"
       id="path4538-6"
       inkscape:connector-curvature="0" />
    <path
       style="fill:#ffffff;fill-rule:evenodd;stroke:none;stroke-width:1px;stroke-linecap:butt;stroke-linejoin:miter;stroke-opacity:1"
       d="m 977.40711,890.19988 c 0,0 -122.84599,163.82752 -281.56876,185.74882 10.25731,-0.9537 127.732,-55.6486 281.56876,-185.74882 z"
       id="path4538-0-7"
       inkscape:connector-curvature="0" />
    <path
       style="fill:#ffffff;fill-rule:evenodd;stroke:none;stroke-width:1px;stroke-linecap:butt;stroke-linejoin:miter;stroke-opacity:1"
       d="m 66.67006,681.93174 c 0,0 -40.406097,-115.15738 -6.060914,-167.6853 2.020305,6.06092 -4.04061,117.17768 6.060914,167.6853 z"
       id="path4579"
       inkscape:connector-curvature="0" />
    <path
       style="fill:#ffffff;fill-rule:evenodd;stroke:none;stroke-width:1px;stroke-linecap:butt;stroke-linejoin:miter;stroke-opacity:1"
       d="m 1041.9017,661.30477 c 0,0 27.3659,-118.93265 -12.6009,-167.32096 -1.3346,6.24779 17.0302,116.00391 12.6009,167.32096 z"
       id="path4579-5"
       inkscape:connector-curvature="0"
       inkscape:transform-center-y="12.121789" />
    <path
       style="fill:#ffffff;fill-rule:evenodd;stroke:none;stroke-width:1px;stroke-linecap:butt;stroke-linejoin:miter;stroke-opacity:1"
       d="m 696.11703,806.47676 c 0,0 155.90293,-138.58019 217.94892,-303.63825 0,0 -99.7396,193.69383 -217.94892,303.63825 z"
       id="path4605"
       inkscape:connector-curvature="0"
       sodipodi:nodetypes="ccc" />
  </g>
  <g
     inkscape:groupmode="layer"
     id="layer4"
     inkscape:label="Texte Ligue Aquitaine"
     sodipodi:insensitive="true"
     style="display:inline">
    <text
       xml:space="preserve"
       style="font-style:normal;font-variant:normal;font-weight:bold;font-stretch:normal;font-size:84.92621613px;line-height:125%;font-family:Verdana;-inkscape-font-specification:'Verdana, Bold';text-align:center;letter-spacing:0px;word-spacing:0px;writing-mode:lr-tb;text-anchor:middle;display:inline;fill:#0055d4;fill-opacity:1;stroke:#ffffff;stroke-width:3.19999957;stroke-linecap:butt;stroke-linejoin:miter;stroke-miterlimit:4;stroke-dasharray:none;stroke-dashoffset:0;stroke-opacity:1"
       x="259.60291"
       y="711.83386"
       id="text4202"
       sodipodi:linespacing="125%"
       transform="matrix(0.78042127,-0.57611275,0.52329291,0.89506053,0,0)"
       inkscape:transform-center-x="-414.47945"
       inkscape:transform-center-y="-317.45344"><tspan
         sodipodi:role="line"
         x="259.60291"
         y="711.83386"
         id="tspan4206"
         style="font-style:normal;font-variant:normal;font-weight:bold;font-stretch:normal;font-family:'Segoe Print';-inkscape-font-specification:'Segoe Print Bold';text-align:center;text-anchor:middle;fill:#0055d4;stroke:#ffffff;stroke-width:3.19999957;stroke-miterlimit:4;stroke-dasharray:none;stroke-dashoffset:0;stroke-opacity:1">Ligue Nouvelle Aquitaine</tspan><tspan
         sodipodi:role="line"
         x="259.60291"
         y="817.99164"
         style="font-style:normal;font-variant:normal;font-weight:bold;font-stretch:normal;font-family:'Segoe Print';-inkscape-font-specification:'Segoe Print Bold';text-align:center;text-anchor:middle;fill:#0055d4;stroke:#ffffff;stroke-width:3.19999957;stroke-miterlimit:4;stroke-dasharray:none;stroke-dashoffset:0;stroke-opacity:1"
         id="tspan4263">de Football</tspan></text>
  </g>
  <g
     inkscape:groupmode="layer"
     id="layer8"
     inkscape:label="Thierry Création"
     sodipodi:insensitive="true"
     style="display:inline">
    <text
       xml:space="preserve"
       style="font-style:normal;font-variant:normal;font-weight:bold;font-stretch:normal;font-size:60px;line-height:125%;font-family:Verdana;-inkscape-font-specification:'Verdana, Bold';text-align:start;letter-spacing:0px;word-spacing:0px;writing-mode:lr-tb;text-anchor:start;fill:#000000;fill-opacity:1;stroke:none;stroke-width:1px;stroke-linecap:butt;stroke-linejoin:miter;stroke-opacity:1"
       x="1154.2855"
       y="1391.6085"
       id="text4622"
       sodipodi:linespacing="125%"><tspan
         sodipodi:role="line"
         id="tspan4626"
         style="font-style:normal;font-variant:normal;font-weight:bold;font-stretch:normal;font-size:24.99999619px;font-family:'Segoe Print';-inkscape-font-specification:'Segoe Print Bold'"
         x="1154.2855"
         y="1391.6085">Thierry Création ©</tspan></text>
  </g>
</svg>
